<svg width="24" height="24" xmlns="http://www.w3.org/2000/svg">
 <g>
  <line  stroke-linecap="null" stroke-linejoin="null" id="svg_3" y2="18.322779" x2="1.930389" y1="6.670882" x1="1.930389" fill="#fff"/>
  <path  transform="rotate(-90 9.418135643005373,12.534907341003418) " id="svg_4" d="m1.127006,18.294396l3.109174,-11.518976l10.363915,0l3.109173,11.518976l-16.582262,0z" fill="#fff"/>
  <path  transform="rotate(-180 18.74153709411621,12.39881896972656) " id="svg_5" d="m17.85547,6.133004l2.215187,0c-0.244683,0 -0.443037,2.805302 -0.443037,6.265816c0,3.460515 0.198355,6.265816 0.443037,6.265816l-2.215187,0l0,0c-0.244683,0 -0.443037,-2.805301 -0.443037,-6.265816c0,-3.460514 0.198355,-6.265816 0.443037,-6.265816z"  fill="#fff"/>
  <path  transform="rotate(-180 22.15924835205078,12.398818969726562) " id="svg_7" d="m21.273173,4.867183l2.215187,0c-0.244683,0 -0.443037,3.372028 -0.443037,7.531637c0,4.159608 0.198354,7.531636 0.443037,7.531636l-2.215187,0l0,0c-0.244683,0 -0.443038,-3.372028 -0.443038,-7.531636c0,-4.159609 0.198355,-7.531637 0.443038,-7.531637z"  fill="#fff"/>
 </g>
</svg>