<svg width="50" height="50" xmlns="http://www.w3.org/2000/svg">
 <defs>
  <radialGradient cy="0.5" cx="0.5" r="0.01" gradientTransform="rotate(-90,0.5,0.5) translate(0.505,0) scale(-0.010000000000000009,1)" spreadMethod="pad" id="svg_6">
   <stop offset="0" stop-color="#000000"/>
   <stop offset="1" stop-color="#ffffff"/>
  </radialGradient>
 </defs>
 <g>
  <title>Layer 1</title>
  <path id="svg_3" d="m11.981135,19.267026c2.98849,5.729963 3.571918,7.470073 2.583816,7.706386c-1.930191,0.461632 -1.542316,3.101777 1.15931,7.891043c3.388128,6.006268 10.024433,9.694663 16.257968,9.036027c2.419498,-0.255646 5.154849,-0.783237 6.078556,-1.172441c0.923703,-0.389208 0.356883,0.335843 -1.259602,1.611213c-8.086587,6.380123 -18.07388,5.935695 -26.041569,-1.158823c-3.176867,-2.828727 -7.547744,-11.093482 -7.547744,-14.271813c0,-0.900399 -0.720607,-1.772851 -1.601347,-1.938771c-1.440348,-0.271345 -1.246917,-0.985804 1.923944,-7.106262c1.938912,-3.742526 3.764077,-7.073046 4.055926,-7.401152c0.291853,-0.328106 2.267686,2.733957 4.390744,6.804589l-0.000002,0.000002zm25.688642,11.046664c-2.988491,-5.729961 -3.571918,-7.470078 -2.58382,-7.706386c1.930191,-0.461624 1.542318,-3.101775 -1.159305,-7.891043c-3.38813,-6.006269 -10.024441,-9.694665 -16.257973,-9.036031c-2.419498,0.255643 -5.154844,0.783244 -6.07855,1.172449c-0.923707,0.3892 -0.356886,-0.335848 1.259599,-1.611216c8.086589,-6.380126 18.073881,-5.935701 26.041571,1.158826c3.176869,2.828718 7.547742,11.093479 7.547742,14.271803c0,0.900406 0.720613,1.772851 1.601344,1.938771c1.440355,0.27135 1.246918,0.985804 -1.923938,7.106265c-1.938911,3.742521 -3.764081,7.073042 -4.055926,7.401152c-0.291855,0.328106 -2.267686,-2.733954 -4.390744,-6.804588l0,-0.000002z" stroke-width="1.5" fill="#fff"/>
 </g>
</svg>